<svg width="41" height="24" viewBox="0 0 41 24" fill="none" xmlns="http://www.w3.org/2000/svg">
<path d="M16.8906 20.2838C10.4673 22.281 0.0926726 20.2399 0.000572643 11.3449C-0.0916274 2.44983 10.9806 7.74852 10.9806 7.74852L16.8906 20.2838Z" fill="#FFC250"/>
<path d="M3.12357 6.35426C7.60657 5.58608 11.0113 11.5265 14.7783 17.7232C18.5452 23.92 28.3542 26.3762 34.6218 21.165C40.8893 15.9539 43.542 6.82713 35.8464 1.38317C28.1509 -4.06079 23.3471 8.29872 16.7221 8.63845C10.0972 8.97819 10.0489 4.05367 3.12357 6.35426Z" fill="#FFD064"/>
<path d="M35.1972 13.5893C36.2838 13.5893 37.1646 12.7085 37.1646 11.6219C37.1646 10.5353 36.2838 9.65445 35.1972 9.65445C34.1106 9.65445 33.2297 10.5353 33.2297 11.6219C33.2297 12.7085 34.1106 13.5893 35.1972 13.5893Z" fill="#FFE19D"/>
<path d="M31.4262 14.573C32.2411 14.573 32.9018 13.9123 32.9018 13.0974C32.9018 12.2825 32.2411 11.6218 31.4262 11.6218C30.6112 11.6218 29.9506 12.2825 29.9506 13.0974C29.9506 13.9123 30.6112 14.573 31.4262 14.573Z" fill="#FFE19D"/>
<path d="M34.0495 16.2125C34.6833 16.2125 35.1972 15.6986 35.1972 15.0648C35.1972 14.4309 34.6833 13.9171 34.0495 13.9171C33.4156 13.9171 32.9018 14.4309 32.9018 15.0648C32.9018 15.6986 33.4156 16.2125 34.0495 16.2125Z" fill="#FFE19D"/>
</svg>
